<!DOCTYPE svg PUBLIC "-//W3C//DTD SVG 1.1//EN" "http://www.w3.org/Graphics/SVG/1.1/DTD/svg11.dtd">
<!-- Uploaded to: SVG Repo, www.svgrepo.com, Transformed by: SVG Repo Mixer Tools -->
<svg height="800px" width="800px" version="1.1" id="_x32_" xmlns="http://www.w3.org/2000/svg" xmlns:xlink="http://www.w3.org/1999/xlink" viewBox="0 0 512 512" xml:space="preserve" fill="#ffffff">
<g id="SVGRepo_bgCarrier" stroke-width="0"/>
<g id="SVGRepo_tracerCarrier" stroke-linecap="round" stroke-linejoin="round"/>
<g id="SVGRepo_iconCarrier"> <style type="text/css"> .st0{fill:#ffffff;} </style> <g> <path class="st0" d="M149.192,103.525c15.995,0,28.964-12.97,28.964-28.973V28.964C178.157,12.97,165.187,0,149.192,0 C133.19,0,120.22,12.97,120.22,28.964v45.588C120.22,90.556,133.19,103.525,149.192,103.525z"/> <path class="st0" d="M362.815,103.525c15.994,0,28.964-12.97,28.964-28.973V28.964C391.78,12.97,378.809,0,362.815,0 c-16.004,0-28.973,12.97-28.973,28.964v45.588C333.843,90.556,346.812,103.525,362.815,103.525z"/> <path class="st0" d="M435.164,41.287h-17.925v33.265c0,30.018-24.415,54.432-54.423,54.432c-30.017,0-54.432-24.414-54.432-54.432 V41.287H203.615v33.265c0,30.018-24.414,54.432-54.423,54.432c-30.017,0-54.431-24.414-54.431-54.432V41.287H76.836 c-38.528,0-69.762,31.235-69.762,69.763v331.187C7.073,480.765,38.308,512,76.836,512h358.328 c38.528,0,69.763-31.235,69.763-69.763V111.05C504.927,72.522,473.691,41.287,435.164,41.287z M450.023,429.988 c0,17.826-14.503,32.329-32.329,32.329H94.306c-17.826,0-32.329-14.503-32.329-32.329V170.876h388.047V429.988z"/> <path class="st0" d="M207.112,389.836c29.934,0,50.852-20.254,50.852-49.243c0-18.249-9.191-32.454-19.077-38.288 c10.26-7.798,15.87-19.143,15.87-32.271c0-27.415-18.788-45.124-47.868-45.124c-24.804,0-44.031,14.03-47.86,34.939 c-0.207,1.252,0.05,2.47,0.729,3.414c0.647,0.904,1.641,1.509,2.678,1.674l19.599,4.608l0.97,0.091 c1.948,0,3.422-1.118,4.094-3.165c2.768-9.639,9.116-14.536,18.871-14.536c11.585,0,18.779,7.293,18.779,19.011 c0,12.522-8.097,20.619-20.619,20.619h-6.183c-2.527,0-4.343,1.824-4.343,4.36v18.091c0,2.52,1.816,4.351,4.343,4.351h6.638 c14.412,0,23.37,8.951,23.37,23.362c0,12.804-8.18,21.083-20.843,21.083c-14.237,0-19.682-9.472-21.638-15.083 c-0.638-1.898-2.229-3.074-4.152-3.074l-0.788,0.058l-20.353,4.69c-2.312,0.763-3.606,2.893-3.191,5.387 C161.872,376.403,181.082,389.836,207.112,389.836z"/> <path class="st0" d="M301.837,279.424c0.788,0,1.6-0.273,2.462-0.828l21.016-14.76v119.131c0,2.528,1.832,4.351,4.359,4.351h21.084 c2.511,0,4.334-1.823,4.334-4.351V231.78c0-2.528-1.823-4.351-4.334-4.351h-19.484c-2.188,0-3.804,0.539-5.337,1.765l-25.028,18.15 c-1.633,1.292-2.387,2.826-2.387,4.815v23.37c0,1.036,0.249,1.906,0.738,2.585C299.856,278.943,300.801,279.424,301.837,279.424z"/> </g> </g>
</svg>