<!DOCTYPE svg PUBLIC "-//W3C//DTD SVG 1.1//EN" "http://www.w3.org/Graphics/SVG/1.1/DTD/svg11.dtd">
<!-- Uploaded to: SVG Repo, www.svgrepo.com, Transformed by: SVG Repo Mixer Tools -->
<svg height="800px" width="800px" version="1.1" id="_x32_" xmlns="http://www.w3.org/2000/svg" xmlns:xlink="http://www.w3.org/1999/xlink" viewBox="0 0 512 512" xml:space="preserve" fill="#ffffff">
<g id="SVGRepo_bgCarrier" stroke-width="0"/>
<g id="SVGRepo_tracerCarrier" stroke-linecap="round" stroke-linejoin="round"/>
<g id="SVGRepo_iconCarrier"> <style type="text/css"> .st0{fill:#ffffff;} </style> <g> <path class="st0" d="M149.193,103.525c15.995,0,28.964-12.97,28.964-28.973V28.964C178.157,12.97,165.188,0,149.193,0 C133.19,0,120.22,12.97,120.22,28.964v45.588C120.22,90.556,133.19,103.525,149.193,103.525z"/> <path class="st0" d="M362.816,103.525c15.994,0,28.964-12.97,28.964-28.973V28.964C391.779,12.97,378.81,0,362.816,0 c-16.003,0-28.973,12.97-28.973,28.964v45.588C333.843,90.556,346.812,103.525,362.816,103.525z"/> <path class="st0" d="M435.164,41.287h-17.926v33.265c0,30.018-24.414,54.432-54.422,54.432c-30.017,0-54.431-24.414-54.431-54.432 V41.287H203.616v33.265c0,30.018-24.415,54.432-54.423,54.432c-30.017,0-54.432-24.414-54.432-54.432V41.287H76.836 c-38.528,0-69.763,31.235-69.763,69.763v331.187C7.073,480.765,38.308,512,76.836,512h358.328 c38.528,0,69.764-31.235,69.764-69.763V111.05C504.927,72.522,473.692,41.287,435.164,41.287z M450.023,429.988 c0,17.826-14.503,32.329-32.329,32.329H94.306c-17.826,0-32.328-14.503-32.328-32.329V170.876h388.046V429.988z"/> <path class="st0" d="M204.61,275.512h20.096c2.544,0,4.401-1.848,4.401-4.4v-17.57h49.824l-51.025,130.103 c-0.829,1.964-0.282,3.273,0.124,3.887c0.664,0.994,1.791,1.55,3.175,1.55h22.21c2.925,0,3.986-1.177,4.947-3.398l52.575-132.025 c0.605-1.508,0.854-2.958,0.854-4.981v-18.224c0-2.552-1.848-4.4-4.401-4.4H204.61c-2.553,0-4.401,1.848-4.401,4.4v40.658 C200.209,273.664,202.058,275.512,204.61,275.512z"/> </g> </g>
</svg>